# Model 828d1b43814fc98c93b89bfd41acaad0
# Name pakistani folding octagonal table
# Vertices
mtllib 828d1b43814fc98c93b89bfd41acaad0.mtl
v 0.324636 9.455 -5.6819e-014
vn -0.382683 0.92388 0
vt 0 1.61642e-018
v -5.61571 6.99443 15.1162
vn -0.382683 0.92388 0
vt 1 1
v 0.324636 9.455 15.1162
vn -0.382683 0.92388 0
vt 0 1
v -5.61571 6.99443 15.1162
vn -0.382683 0.92388 0
vt 1 1
v 0.324636 9.455 -5.6819e-014
vn -0.382683 0.92388 0
vt 0 1.61642e-018
v -5.61571 6.99443 -5.68434e-014
vn -0.382683 0.92388 0
vt 1 0
v 6.35106 6.95877 -5.6819e-014
vn 0.382683 0.92388 0
vt 0 0
v 0.324636 9.455 15.1162
vn 0.382683 0.92388 0
vt 1 1
v 6.35106 6.95877 15.1162
vn 0.382683 0.92388 0
vt 0 1
v 0.324636 9.455 15.1162
vn 0.382683 0.92388 0
vt 1 1
v 6.35106 6.95877 -5.6819e-014
vn 0.382683 0.92388 0
vt 0 0
v 0.324636 9.455 -5.6819e-014
vn 0.382683 0.92388 0
vt 1 0
v 8.84729 0.932348 15.1162
vn 0.92388 0.382683 0
vt 1.06082e-013 1
v 6.35106 6.95877 -5.6819e-014
vn 0.92388 0.382683 0
vt 1 0
v 6.35106 6.95877 15.1162
vn 0.92388 0.382683 0
vt 1 1
v 6.35106 6.95877 -5.6819e-014
vn 0.92388 0.382683 0
vt 1 0
v 8.84729 0.932348 15.1162
vn 0.92388 0.382683 0
vt 1.06082e-013 1
v 8.84729 0.932348 -5.6819e-014
vn 0.92388 0.382683 0
vt 1.06082e-013 0
v -5.65875 -5.07625 -5.6819e-014
vn -0.382683 -0.92388 0
vt 0 0
v 0.367678 -7.57248 15.1162
vn -0.382683 -0.92388 0
vt 1 1
v -5.65875 -5.07625 15.1162
vn -0.382683 -0.92388 0
vt 0 1
v 0.367678 -7.57248 15.1162
vn -0.382683 -0.92388 0
vt 1 1
v -5.65875 -5.07625 -5.6819e-014
vn -0.382683 -0.92388 0
vt 0 0
v 0.367678 -7.57248 -5.6819e-014
vn -0.382683 -0.92388 0
vt 1 0
v 6.3941 6.9766 15.1162
vn 0 0 1
vt 0.853553 0.853553
v 6.3941 -5.07625 15.1162
vn 0 0 1
vt 0.853553 0.146447
v 8.89033 0.950176 15.1162
vn 0 0 1
vt 1 0.5
v 6.3941 6.9766 15.1162
vn 0 0 1
vt 0.853553 0.853553
v 6.35106 -5.09408 15.1162
vn 0 0 1
vt 0.851028 0.145401
v 6.3941 -5.07625 15.1162
vn 0 0 1
vt 0.853553 0.146447
v 6.3941 6.9766 15.1162
vn 0 0 1
vt 0.853553 0.853553
v 6.30802 -5.11191 15.1162
vn 0 0 1
vt 0.848503 0.144355
v 6.35106 -5.09408 15.1162
vn 0 0 1
vt 0.851028 0.145401
v 6.3941 6.9766 15.1162
vn 0 0 1
vt 0.853553 0.853553
v 0.367678 -7.57248 15.1162
vn 0 0 1
vt 0.5 0
v 6.30802 -5.11191 15.1162
vn 0 0 1
vt 0.848503 0.144355
v 0.367678 9.47283 15.1162
vn 0 0 1
vt 0.5 1
v 0.367678 -7.57248 15.1162
vn 0 0 1
vt 0.5 0
v 6.3941 6.9766 15.1162
vn 0 0 1
vt 0.853553 0.853553
v 0.324636 9.455 15.1162
vn 0 0 1
vt 0.497475 0.998954
v 0.367678 -7.57248 15.1162
vn 0 0 1
vt 0.5 0
v 0.367678 9.47283 15.1162
vn 0 0 1
vt 0.5 1
v -5.61571 6.99443 15.1162
vn 0 0 1
vt 0.148972 0.854599
v 0.367678 -7.57248 15.1162
vn 0 0 1
vt 0.5 0
v 0.324636 9.455 15.1162
vn 0 0 1
vt 0.497475 0.998954
v -5.61571 6.99443 15.1162
vn 0 0 1
vt 0.148972 0.854599
v -5.65875 -5.07625 15.1162
vn 0 0 1
vt 0.146447 0.146447
v 0.367678 -7.57248 15.1162
vn 0 0 1
vt 0.5 0
v -5.65875 6.9766 15.1162
vn 0 0 1
vt 0.146447 0.853553
v -5.65875 -5.07625 15.1162
vn 0 0 1
vt 0.146447 0.146447
v -5.61571 6.99443 15.1162
vn 0 0 1
vt 0.148972 0.854599
v -8.13715 0.993219 15.1162
vn 0 0 1
vt 0.00104596 0.502525
v -5.65875 -5.07625 15.1162
vn 0 0 1
vt 0.146447 0.146447
v -5.65875 6.9766 15.1162
vn 0 0 1
vt 0.146447 0.853553
v -5.65875 -5.07625 15.1162
vn 0 0 1
vt 0.146447 0.146447
v -8.13715 0.993219 15.1162
vn 0 0 1
vt 0.00104596 0.502525
v -8.15498 0.950176 15.1162
vn 0 0 1
vt 0 0.5
v -8.13715 0.993219 -5.68434e-014
vn -0.92388 0.382683 0
vt 1 5.60519e-045
v -5.65875 6.9766 15.1162
vn -0.92388 0.382683 0
vt 0 1
v -5.65875 6.9766 -5.6819e-014
vn -0.92388 0.382683 0
vt 0 1.61642e-018
v -5.65875 6.9766 15.1162
vn -0.92388 0.382683 0
vt 0 1
v -8.13715 0.993219 -5.68434e-014
vn -0.92388 0.382683 0
vt 1 5.60519e-045
v -8.13715 0.993219 15.1162
vn -0.92388 0.382683 0
vt 1 1
v -5.61571 6.99443 15.1162
vn -0.382683 0.92388 0
vt 0 1
v -5.65875 6.9766 -5.6819e-014
vn -0.382683 0.92388 0
vt 1 1.61642e-018
v -5.65875 6.9766 15.1162
vn -0.382683 0.92388 0
vt 1 1
v -5.65875 6.9766 -5.6819e-014
vn -0.382683 0.92388 0
vt 1 1.61642e-018
v -5.61571 6.99443 15.1162
vn -0.382683 0.92388 0
vt 0 1
v -5.61571 6.99443 -5.68434e-014
vn -0.382683 0.92388 0
vt 0 0
v 6.3941 -5.07625 -5.6819e-014
vn 4.43951e-019 1.30453e-019 -1
vt 0 0
v 6.3941 6.9766 -5.6819e-014
vn 4.43951e-019 1.30453e-019 -1
vt 0 0
v 8.89033 0.950176 -5.6819e-014
vn 4.43951e-019 1.30453e-019 -1
vt 0 0
v 6.35106 -5.09408 -5.6819e-014
vn 4.43951e-019 1.30453e-019 -1
vt 0 0
v 6.3941 6.9766 -5.6819e-014
vn 4.43951e-019 1.30453e-019 -1
vt 0 0
v 6.3941 -5.07625 -5.6819e-014
vn 4.43951e-019 1.30453e-019 -1
vt 0 0
v 6.30802 -5.11191 -5.68434e-014
vn 4.43951e-019 1.30453e-019 -1
vt 0 0
v 6.3941 6.9766 -5.6819e-014
vn 4.43951e-019 1.30453e-019 -1
vt 0 0
v 6.35106 -5.09408 -5.6819e-014
vn 4.43951e-019 1.30453e-019 -1
vt 0 0
v 0.367678 -7.57248 -5.6819e-014
vn 4.43951e-019 1.30453e-019 -1
vt 0 0
v 6.3941 6.9766 -5.6819e-014
vn 4.43951e-019 1.30453e-019 -1
vt 0 0
v 6.30802 -5.11191 -5.68434e-014
vn 4.43951e-019 1.30453e-019 -1
vt 0 0
v 0.367678 -7.57248 -5.6819e-014
vn 4.43951e-019 1.30453e-019 -1
vt 0 0
v 0.367678 9.47283 -5.6819e-014
vn 4.43951e-019 1.30453e-019 -1
vt 0 0
v 6.3941 6.9766 -5.6819e-014
vn 4.43951e-019 1.30453e-019 -1
vt 0 0
v 0.367678 -7.57248 -5.6819e-014
vn 4.43951e-019 1.30453e-019 -1
vt 0 0
v 0.324636 9.455 -5.6819e-014
vn 4.43951e-019 1.30453e-019 -1
vt 0 0
v 0.367678 9.47283 -5.6819e-014
vn 4.43951e-019 1.30453e-019 -1
vt 0 0
v 0.367678 -7.57248 -5.6819e-014
vn 4.43951e-019 1.30453e-019 -1
vt 0 0
v -5.61571 6.99443 -5.68434e-014
vn 4.43951e-019 1.30453e-019 -1
vt 0 0
v 0.324636 9.455 -5.6819e-014
vn 4.43951e-019 1.30453e-019 -1
vt 0 0
v -5.65875 -5.07625 -5.6819e-014
vn 4.43951e-019 1.30453e-019 -1
vt 0 0
v -5.61571 6.99443 -5.68434e-014
vn 4.43951e-019 1.30453e-019 -1
vt 0 0
v 0.367678 -7.57248 -5.6819e-014
vn 4.43951e-019 1.30453e-019 -1
vt 0 0
v -5.65875 -5.07625 -5.6819e-014
vn 4.43951e-019 1.30453e-019 -1
vt 0 0
v -5.65875 6.9766 -5.6819e-014
vn 4.43951e-019 1.30453e-019 -1
vt 0 0
v -5.61571 6.99443 -5.68434e-014
vn 4.43951e-019 1.30453e-019 -1
vt 0 0
v -5.65875 -5.07625 -5.6819e-014
vn 4.43951e-019 1.30453e-019 -1
vt 0 0
v -8.13715 0.993219 -5.68434e-014
vn 4.43951e-019 1.30453e-019 -1
vt 0 0
v -5.65875 6.9766 -5.6819e-014
vn 4.43951e-019 1.30453e-019 -1
vt 0 0
v -8.13715 0.993219 -5.68434e-014
vn 4.43951e-019 1.30453e-019 -1
vt 0 0
v -5.65875 -5.07625 -5.6819e-014
vn 4.43951e-019 1.30453e-019 -1
vt 0 0
v -8.15498 0.950176 -5.6819e-014
vn 4.43951e-019 1.30453e-019 -1
vt 0 0
v -5.65875 -5.07625 -5.6819e-014
vn -0.92388 -0.382683 0
vt 1 0
v -8.15498 0.950176 15.1162
vn -0.92388 -0.382683 0
vt 0 1
v -8.15498 0.950176 -5.6819e-014
vn -0.92388 -0.382683 0
vt 0 0
v -8.15498 0.950176 15.1162
vn -0.92388 -0.382683 0
vt 0 1
v -5.65875 -5.07625 -5.6819e-014
vn -0.92388 -0.382683 0
vt 1 0
v -5.65875 -5.07625 15.1162
vn -0.92388 -0.382683 0
vt 1 1
v 0.367678 -7.57248 -5.6819e-014
vn 0.382683 -0.92388 0
vt 0 1.61642e-018
v 6.30802 -5.11191 15.1162
vn 0.382683 -0.92388 0
vt 1 1
v 0.367678 -7.57248 15.1162
vn 0.382683 -0.92388 0
vt 0 1
v 6.30802 -5.11191 15.1162
vn 0.382683 -0.92388 0
vt 1 1
v 0.367678 -7.57248 -5.6819e-014
vn 0.382683 -0.92388 0
vt 0 1.61642e-018
v 6.30802 -5.11191 -5.68434e-014
vn 0.382683 -0.92388 0
vt 1 0
v 6.35106 -5.09408 15.1162
vn 0.92388 -0.382683 0
vt -2.22045e-016 1
v 8.82946 0.889305 -5.68434e-014
vn 0.92388 -0.382683 0
vt 1 5.60519e-045
v 8.82946 0.889305 15.1162
vn 0.92388 -0.382683 0
vt 1 1
v 8.82946 0.889305 -5.68434e-014
vn 0.92388 -0.382683 0
vt 1 5.60519e-045
v 6.35106 -5.09408 15.1162
vn 0.92388 -0.382683 0
vt -2.22045e-016 1
v 6.35106 -5.09408 -5.6819e-014
vn 0.92388 -0.382683 0
vt -2.22045e-016 1.61642e-018
g pakistani folding octagonal table
usemtl m1
f 1/1/1 2/2/2 3/3/3
f 4/4/4 5/5/5 6/6/6
usemtl m0
f 7/7/7 8/8/8 9/9/9
f 10/10/10 11/11/11 12/12/12
usemtl m2
f 13/13/13 14/14/14 15/15/15
f 16/16/16 17/17/17 18/18/18
f 19/19/19 20/20/20 21/21/21
f 22/22/22 23/23/23 24/24/24
usemtl m8
f 25/25/25 26/26/26 27/27/27
f 28/28/28 29/29/29 30/30/30
f 31/31/31 32/32/32 33/33/33
f 34/34/34 35/35/35 36/36/36
f 37/37/37 38/38/38 39/39/39
f 40/40/40 41/41/41 42/42/42
f 43/43/43 44/44/44 45/45/45
f 46/46/46 47/47/47 48/48/48
f 49/49/49 50/50/50 51/51/51
f 52/52/52 53/53/53 54/54/54
f 55/55/55 56/56/56 57/57/57
usemtl m4
f 58/58/58 59/59/59 60/60/60
f 61/61/61 62/62/62 63/63/63
usemtl m3
f 64/64/64 65/65/65 66/66/66
f 67/67/67 68/68/68 69/69/69
usemtl m5
f 70//70 71//71 72//72
f 73//73 74//74 75//75
f 76//76 77//77 78//78
f 79//79 80//80 81//81
f 82//82 83//83 84//84
f 85//85 86//86 87//87
f 88//88 89//89 90//90
f 91//91 92//92 93//93
f 94//94 95//95 96//96
f 97//97 98//98 99//99
f 100//100 101//101 102//102
usemtl m6
f 103/103/103 104/104/104 105/105/105
f 106/106/106 107/107/107 108/108/108
usemtl m7
f 109/109/109 110/110/110 111/111/111
f 112/112/112 113/113/113 114/114/114
usemtl m9
f 115/115/115 116/116/116 117/117/117
f 118/118/118 119/119/119 120/120/120
