# SSTK version 0.8.0
# 13
mtllib original-13.mtl
o mesh5/mesh5-geometry/material_3/component_1#mesh5-geometry
v -0.582915 0.277884 -0.075407
v -0.602552 0.262665 -0.030419
v -0.588378 0.262665 -0.106896
v -0.602552 0.262665 -0.030419
v -0.588408 0.262284 -0.107566
v -0.588378 0.262665 -0.106896
v -0.613117 0.175736 -0.162765
v -0.644157 0.158608 -0.0326
v -0.61989 0.158608 -0.16353
v -0.644157 0.158608 -0.0326
v -0.622119 0.141361 -0.163482
v -0.61989 0.158608 -0.16353
v -0.595756 0.262665 0.055941
v -0.584498 0.287218 -0.029473
v -0.588024 0.275892 0.031109
v -0.588024 0.275892 0.031109
v -0.584498 0.287218 -0.029473
v -0.583723 0.285506 -0.003691
v -0.584498 0.287218 -0.029473
v -0.582915 0.277884 -0.075407
v -0.583024 0.286595 -0.039922
v -0.602552 0.262665 -0.030419
v -0.582915 0.277884 -0.075407
v -0.584498 0.287218 -0.029473
v -0.602552 0.262665 -0.030419
v -0.593588 0.237429 -0.133757
v -0.588408 0.262284 -0.107566
v -0.644157 0.158608 -0.0326
v -0.642406 0.053827 -0.114797
v -0.635008 0.078028 -0.137903
v -0.644157 0.158608 -0.0326
v -0.635008 0.078028 -0.137903
v -0.628121 0.107582 -0.154549
v -0.602552 0.262665 -0.030419
v -0.613117 0.175736 -0.162765
v -0.60204 0.20791 -0.15245
v -0.644157 0.158608 -0.0326
v -0.613117 0.175736 -0.162765
v -0.602552 0.262665 -0.030419
v -0.644157 0.158608 -0.0326
v -0.628121 0.107582 -0.154549
v -0.622119 0.141361 -0.163482
v -0.596812 0.258772 0.06222
v -0.602552 0.262665 -0.030419
v -0.595756 0.262665 0.055941
v -0.584498 0.287218 -0.029473
v -0.595756 0.262665 0.055941
v -0.602552 0.262665 -0.030419
v -0.602552 0.262665 -0.030419
v -0.60204 0.20791 -0.15245
v -0.593588 0.237429 -0.133757
v -0.642406 0.053827 -0.114797
v -0.658327 0.047423 -0.033342
v -0.645141 0.047423 -0.104491
v -0.658327 0.047423 -0.033342
v -0.642406 0.053827 -0.114797
v -0.644157 0.158608 -0.0326
v -0.602552 0.262665 -0.030419
v -0.632872 0.158608 0.110783
v -0.644157 0.158608 -0.0326
v -0.632872 0.158608 0.110783
v -0.602552 0.262665 -0.030419
v -0.628512 0.16945 0.111331
v -0.628512 0.16945 0.111331
v -0.602552 0.262665 -0.030419
v -0.615893 0.202691 0.10349
v -0.605081 0.233157 0.086739
v -0.602552 0.262665 -0.030419
v -0.596812 0.258772 0.06222
v -0.658327 0.047423 -0.033342
v -0.647144 0.036173 -0.08587
v -0.645141 0.047423 -0.104491
v -0.644157 0.158608 -0.0326
v -0.651693 0.047423 0.05095
v -0.658327 0.047423 -0.033342
v -0.636205 0.133393 0.109104
v -0.644157 0.158608 -0.0326
v -0.632872 0.158608 0.110783
v -0.615893 0.202691 0.10349
v -0.602552 0.262665 -0.030419
v -0.605081 0.233157 0.086739
v -0.658327 0.047423 -0.033342
v -0.651893 0.026138 -0.053279
v -0.647144 0.036173 -0.08587
v -0.651693 0.047423 0.05095
v -0.644157 0.158608 -0.0326
v -0.647024 0.06859 0.076145
v -0.651631 0.04544 0.04855
v -0.658327 0.047423 -0.033342
v -0.651693 0.047423 0.05095
v -0.64159 0.098532 0.096903
v -0.644157 0.158608 -0.0326
v -0.636205 0.133393 0.109104
v -0.647024 0.06859 0.076145
v -0.644157 0.158608 -0.0326
v -0.64159 0.098532 0.096903
v -0.655423 0.024635 -0.03319
v -0.652288 0.030293 0.01577
v -0.654201 0.024039 -0.018622
v -0.651893 0.026138 -0.053279
v -0.658327 0.047423 -0.033342
v -0.655423 0.024635 -0.03319
v -0.652288 0.030293 0.01577
v -0.658327 0.047423 -0.033342
v -0.651631 0.04544 0.04855
v -0.652288 0.030293 0.01577
v -0.655423 0.024635 -0.03319
v -0.658327 0.047423 -0.033342
v -0.588378 0.262665 -0.106896
v -0.602552 0.262665 -0.030419
v -0.582915 0.277884 -0.075407
v -0.588378 0.262665 -0.106896
v -0.588408 0.262284 -0.107566
v -0.602552 0.262665 -0.030419
v -0.61989 0.158608 -0.16353
v -0.644157 0.158608 -0.0326
v -0.613117 0.175736 -0.162765
v -0.61989 0.158608 -0.16353
v -0.622119 0.141361 -0.163482
v -0.644157 0.158608 -0.0326
v -0.588024 0.275892 0.031109
v -0.584498 0.287218 -0.029473
v -0.595756 0.262665 0.055941
v -0.583723 0.285506 -0.003691
v -0.584498 0.287218 -0.029473
v -0.588024 0.275892 0.031109
v -0.583024 0.286595 -0.039922
v -0.582915 0.277884 -0.075407
v -0.584498 0.287218 -0.029473
v -0.584498 0.287218 -0.029473
v -0.582915 0.277884 -0.075407
v -0.602552 0.262665 -0.030419
v -0.588408 0.262284 -0.107566
v -0.593588 0.237429 -0.133757
v -0.602552 0.262665 -0.030419
v -0.635008 0.078028 -0.137903
v -0.642406 0.053827 -0.114797
v -0.644157 0.158608 -0.0326
v -0.628121 0.107582 -0.154549
v -0.635008 0.078028 -0.137903
v -0.644157 0.158608 -0.0326
v -0.60204 0.20791 -0.15245
v -0.613117 0.175736 -0.162765
v -0.602552 0.262665 -0.030419
v -0.602552 0.262665 -0.030419
v -0.613117 0.175736 -0.162765
v -0.644157 0.158608 -0.0326
v -0.622119 0.141361 -0.163482
v -0.628121 0.107582 -0.154549
v -0.644157 0.158608 -0.0326
v -0.595756 0.262665 0.055941
v -0.602552 0.262665 -0.030419
v -0.596812 0.258772 0.06222
v -0.602552 0.262665 -0.030419
v -0.595756 0.262665 0.055941
v -0.584498 0.287218 -0.029473
v -0.593588 0.237429 -0.133757
v -0.60204 0.20791 -0.15245
v -0.602552 0.262665 -0.030419
v -0.645141 0.047423 -0.104491
v -0.658327 0.047423 -0.033342
v -0.642406 0.053827 -0.114797
v -0.644157 0.158608 -0.0326
v -0.642406 0.053827 -0.114797
v -0.658327 0.047423 -0.033342
v -0.644157 0.158608 -0.0326
v -0.632872 0.158608 0.110783
v -0.602552 0.262665 -0.030419
v -0.628512 0.16945 0.111331
v -0.602552 0.262665 -0.030419
v -0.632872 0.158608 0.110783
v -0.615893 0.202691 0.10349
v -0.602552 0.262665 -0.030419
v -0.628512 0.16945 0.111331
v -0.596812 0.258772 0.06222
v -0.602552 0.262665 -0.030419
v -0.605081 0.233157 0.086739
v -0.645141 0.047423 -0.104491
v -0.647144 0.036173 -0.08587
v -0.658327 0.047423 -0.033342
v -0.658327 0.047423 -0.033342
v -0.651693 0.047423 0.05095
v -0.644157 0.158608 -0.0326
v -0.632872 0.158608 0.110783
v -0.644157 0.158608 -0.0326
v -0.636205 0.133393 0.109104
v -0.605081 0.233157 0.086739
v -0.602552 0.262665 -0.030419
v -0.615893 0.202691 0.10349
v -0.647144 0.036173 -0.08587
v -0.651893 0.026138 -0.053279
v -0.658327 0.047423 -0.033342
v -0.647024 0.06859 0.076145
v -0.644157 0.158608 -0.0326
v -0.651693 0.047423 0.05095
v -0.651693 0.047423 0.05095
v -0.658327 0.047423 -0.033342
v -0.651631 0.04544 0.04855
v -0.636205 0.133393 0.109104
v -0.644157 0.158608 -0.0326
v -0.64159 0.098532 0.096903
v -0.64159 0.098532 0.096903
v -0.644157 0.158608 -0.0326
v -0.647024 0.06859 0.076145
v -0.654201 0.024039 -0.018622
v -0.652288 0.030293 0.01577
v -0.655423 0.024635 -0.03319
v -0.655423 0.024635 -0.03319
v -0.658327 0.047423 -0.033342
v -0.651893 0.026138 -0.053279
v -0.651631 0.04544 0.04855
v -0.658327 0.047423 -0.033342
v -0.652288 0.030293 0.01577
v -0.658327 0.047423 -0.033342
v -0.655423 0.024635 -0.03319
v -0.652288 0.030293 0.01577
vn 0.7941437358967004 -0.589637177229558 0.14718602503223682
vn 0.8725789072542348 -0.4863278633988338 0.04573029517650878
vn 0.860881634668928 -0.4831408828844844 0.15955468772604414
vn 0.9138893727807816 -0.36893997192618116 0.16937978460683645
vn 0.9666013742813573 -0.2512279496643264 0.050658667025991116
vn 0.9522319155610333 -0.2492119411862125 0.17648735749952457
vn 0.9754765065913998 -0.1255320250721538 0.18079628251024119
vn 0.8728433648799082 -0.483141351679958 -0.0686942114153925
vn 0.804142252611993 -0.5929411427983982 0.042143074650993
vn 0.805178436543096 -0.5896372388694017 -0.06336885563495671
vn 0.926588040420983 -0.3689400134341567 -0.07292372615279072
vn 0.9986294736366814 1.0000000013833496e-06 0.0523371224192218
vn 0.9832546343885767 1.000000132900872e-06 0.18223699940568158
vn 0.9654632981721206 -0.24921302861336173 -0.07598346038426315
vn 0.9754765407017979 0.1255349875724021 0.18079404148270542
vn 0.996917344412318 0.0 -0.07845896003575194
vn 0.9890308783569852 -0.12553499703006862 -0.07783884748036159
vn 0.9890308783569852 0.12553499703006862 -0.07783884748036159
vn 0.9905942941178166 0.1266009984507848 0.0519146573954701
vn -0.860881634668928 0.4831408828844844 -0.15955468772604414
vn -0.8725789072542348 0.4863278633988338 -0.04573029517650878
vn -0.7941437358967004 0.589637177229558 -0.14718602503223682
vn -0.9138893727807816 0.36893997192618116 -0.16937978460683645
vn -0.9522319155610333 0.2492119411862125 -0.17648735749952457
vn -0.9666013742813573 0.2512279496643264 -0.050658667025991116
vn -0.9754765065913998 0.1255320250721538 -0.18079628251024119
vn -0.805178436543096 0.5896372388694017 0.06336885563495671
vn -0.804142252611993 0.5929411427983982 -0.042143074650993
vn -0.8728433648799082 0.483141351679958 0.0686942114153925
vn -0.926588040420983 0.3689400134341567 0.07292372615279072
vn -0.9832546343885767 -1.000000132900872e-06 -0.18223699940568158
vn -0.9986294736366814 -1.0000000013833496e-06 -0.0523371224192218
vn -0.9654632981721206 0.24921302861336173 0.07598346038426315
vn -0.9754765407017979 -0.1255349875724021 -0.18079404148270542
vn -0.996917344412318 0.0 0.07845896003575194
vn -0.9890308783569852 0.12553499703006862 0.07783884748036159
vn -0.9890308783569852 -0.12553499703006862 0.07783884748036159
vn -0.9905942941178166 -0.1266009984507848 -0.0519146573954701
usemtl material_0_0
f 1//1 2//2 3//3
f 4//2 5//4 6//3
f 7//4 8//5 9//6
f 10//5 11//7 12//6
f 13//8 14//9 15//10
f 16//10 17//9 18//10
f 19//9 20//1 21//1
f 22//2 23//1 24//9
f 25//2 26//4 27//4
f 28//5 29//7 30//7
f 31//5 32//7 33//7
f 34//2 35//4 36//4
f 37//5 38//4 39//2
f 40//5 41//7 42//7
f 43//11 44//2 45//8
f 46//9 47//8 48//2
f 49//2 50//4 51//4
f 52//7 53//12 54//13
f 55//12 56//7 57//5
f 58//2 59//14 60//5
f 61//14 62//2 63//11
f 64//11 65//2 66//11
f 67//11 68//2 69//11
f 70//12 71//15 72//13
f 73//5 74//16 75//12
f 76//17 77//5 78//14
f 79//11 80//2 81//11
f 82//12 83//15 84//15
f 85//16 86//5 87//17
f 88//18 89//12 90//16
f 91//17 92//5 93//17
f 94//17 95//5 96//17
f 97//19 98//18 99//18
f 100//15 101//12 102//19
f 103//18 104//12 105//18
f 106//18 107//19 108//12
usemtl material_1_0
f 109//20 110//21 111//22
f 112//20 113//23 114//21
f 115//24 116//25 117//23
f 118//24 119//26 120//25
f 121//27 122//28 123//29
f 124//27 125//28 126//27
f 127//22 128//22 129//28
f 130//28 131//22 132//21
f 133//23 134//23 135//21
f 136//26 137//26 138//25
f 139//26 140//26 141//25
f 142//23 143//23 144//21
f 145//21 146//23 147//25
f 148//26 149//26 150//25
f 151//29 152//21 153//30
f 154//21 155//29 156//28
f 157//23 158//23 159//21
f 160//31 161//32 162//26
f 163//25 164//26 165//32
f 166//25 167//33 168//21
f 169//30 170//21 171//33
f 172//30 173//21 174//30
f 175//30 176//21 177//30
f 178//31 179//34 180//32
f 181//32 182//35 183//25
f 184//33 185//25 186//36
f 187//30 188//21 189//30
f 190//34 191//34 192//32
f 193//36 194//25 195//35
f 196//35 197//32 198//37
f 199//36 200//25 201//36
f 202//36 203//25 204//36
f 205//37 206//37 207//38
f 208//38 209//32 210//34
f 211//37 212//32 213//37
f 214//32 215//38 216//37
