# SSTK version 0.8.0
# 12
mtllib original-12.mtl
o mesh5/mesh5-geometry/material_3/component_0#mesh5-geometry
v 0.57193 0.287218 0.031133
v 0.570347 0.277884 0.077067
v 0.570456 0.286595 0.041581
v 0.575456 0.275892 -0.029449
v 0.57193 0.287218 0.031133
v 0.571155 0.285506 0.00535
v 0.589985 0.262665 0.032079
v 0.570347 0.277884 0.077067
v 0.57193 0.287218 0.031133
v 0.570347 0.277884 0.077067
v 0.589985 0.262665 0.032079
v 0.57581 0.262665 0.108556
v 0.583188 0.262665 -0.054281
v 0.57193 0.287218 0.031133
v 0.575456 0.275892 -0.029449
v 0.57193 0.287218 0.031133
v 0.583188 0.262665 -0.054281
v 0.589985 0.262665 0.032079
v 0.589985 0.262665 0.032079
v 0.57584 0.262284 0.109226
v 0.57581 0.262665 0.108556
v 0.584244 0.258772 -0.060561
v 0.589985 0.262665 0.032079
v 0.583188 0.262665 -0.054281
v 0.589985 0.262665 0.032079
v 0.58102 0.237429 0.135416
v 0.57584 0.262284 0.109226
v 0.592513 0.233157 -0.085079
v 0.589985 0.262665 0.032079
v 0.584244 0.258772 -0.060561
v 0.589985 0.262665 0.032079
v 0.589472 0.20791 0.15411
v 0.58102 0.237429 0.135416
v 0.600549 0.175736 0.164424
v 0.631589 0.158608 0.034259
v 0.607322 0.158608 0.16519
v 0.631589 0.158608 0.034259
v 0.609551 0.141361 0.165141
v 0.607322 0.158608 0.16519
v 0.603326 0.202691 -0.10183
v 0.589985 0.262665 0.032079
v 0.592513 0.233157 -0.085079
v 0.589985 0.262665 0.032079
v 0.600549 0.175736 0.164424
v 0.589472 0.20791 0.15411
v 0.631589 0.158608 0.034259
v 0.600549 0.175736 0.164424
v 0.589985 0.262665 0.032079
v 0.631589 0.158608 0.034259
v 0.615553 0.107582 0.156209
v 0.609551 0.141361 0.165141
v 0.615944 0.16945 -0.109671
v 0.589985 0.262665 0.032079
v 0.603326 0.202691 -0.10183
v 0.631589 0.158608 0.034259
v 0.629839 0.053827 0.116457
v 0.62244 0.078028 0.139563
v 0.631589 0.158608 0.034259
v 0.62244 0.078028 0.139563
v 0.615553 0.107582 0.156209
v 0.589985 0.262665 0.032079
v 0.620304 0.158608 -0.109123
v 0.631589 0.158608 0.034259
v 0.620304 0.158608 -0.109123
v 0.589985 0.262665 0.032079
v 0.615944 0.16945 -0.109671
v 0.629839 0.053827 0.116457
v 0.64576 0.047423 0.035002
v 0.632573 0.047423 0.106151
v 0.64576 0.047423 0.035002
v 0.629839 0.053827 0.116457
v 0.631589 0.158608 0.034259
v 0.623637 0.133393 -0.107444
v 0.631589 0.158608 0.034259
v 0.620304 0.158608 -0.109123
v 0.64576 0.047423 0.035002
v 0.634577 0.036173 0.087529
v 0.632573 0.047423 0.106151
v 0.631589 0.158608 0.034259
v 0.639126 0.047423 -0.049291
v 0.64576 0.047423 0.035002
v 0.629022 0.098532 -0.095243
v 0.631589 0.158608 0.034259
v 0.623637 0.133393 -0.107444
v 0.64576 0.047423 0.035002
v 0.639325 0.026138 0.054939
v 0.634577 0.036173 0.087529
v 0.639126 0.047423 -0.049291
v 0.631589 0.158608 0.034259
v 0.634456 0.06859 -0.074485
v 0.639063 0.04544 -0.04689
v 0.64576 0.047423 0.035002
v 0.639126 0.047423 -0.049291
v 0.634456 0.06859 -0.074485
v 0.631589 0.158608 0.034259
v 0.629022 0.098532 -0.095243
v 0.639325 0.026138 0.054939
v 0.64576 0.047423 0.035002
v 0.642855 0.024635 0.03485
v 0.63972 0.030293 -0.01411
v 0.64576 0.047423 0.035002
v 0.639063 0.04544 -0.04689
v 0.63972 0.030293 -0.01411
v 0.642855 0.024635 0.03485
v 0.64576 0.047423 0.035002
v 0.642855 0.024635 0.03485
v 0.63972 0.030293 -0.01411
v 0.641633 0.024039 0.020281
v 0.570456 0.286595 0.041581
v 0.570347 0.277884 0.077067
v 0.57193 0.287218 0.031133
v 0.571155 0.285506 0.00535
v 0.57193 0.287218 0.031133
v 0.575456 0.275892 -0.029449
v 0.57193 0.287218 0.031133
v 0.570347 0.277884 0.077067
v 0.589985 0.262665 0.032079
v 0.57581 0.262665 0.108556
v 0.589985 0.262665 0.032079
v 0.570347 0.277884 0.077067
v 0.575456 0.275892 -0.029449
v 0.57193 0.287218 0.031133
v 0.583188 0.262665 -0.054281
v 0.589985 0.262665 0.032079
v 0.583188 0.262665 -0.054281
v 0.57193 0.287218 0.031133
v 0.57581 0.262665 0.108556
v 0.57584 0.262284 0.109226
v 0.589985 0.262665 0.032079
v 0.583188 0.262665 -0.054281
v 0.589985 0.262665 0.032079
v 0.584244 0.258772 -0.060561
v 0.57584 0.262284 0.109226
v 0.58102 0.237429 0.135416
v 0.589985 0.262665 0.032079
v 0.584244 0.258772 -0.060561
v 0.589985 0.262665 0.032079
v 0.592513 0.233157 -0.085079
v 0.58102 0.237429 0.135416
v 0.589472 0.20791 0.15411
v 0.589985 0.262665 0.032079
v 0.607322 0.158608 0.16519
v 0.631589 0.158608 0.034259
v 0.600549 0.175736 0.164424
v 0.607322 0.158608 0.16519
v 0.609551 0.141361 0.165141
v 0.631589 0.158608 0.034259
v 0.592513 0.233157 -0.085079
v 0.589985 0.262665 0.032079
v 0.603326 0.202691 -0.10183
v 0.589472 0.20791 0.15411
v 0.600549 0.175736 0.164424
v 0.589985 0.262665 0.032079
v 0.589985 0.262665 0.032079
v 0.600549 0.175736 0.164424
v 0.631589 0.158608 0.034259
v 0.609551 0.141361 0.165141
v 0.615553 0.107582 0.156209
v 0.631589 0.158608 0.034259
v 0.603326 0.202691 -0.10183
v 0.589985 0.262665 0.032079
v 0.615944 0.16945 -0.109671
v 0.62244 0.078028 0.139563
v 0.629839 0.053827 0.116457
v 0.631589 0.158608 0.034259
v 0.615553 0.107582 0.156209
v 0.62244 0.078028 0.139563
v 0.631589 0.158608 0.034259
v 0.631589 0.158608 0.034259
v 0.620304 0.158608 -0.109123
v 0.589985 0.262665 0.032079
v 0.615944 0.16945 -0.109671
v 0.589985 0.262665 0.032079
v 0.620304 0.158608 -0.109123
v 0.632573 0.047423 0.106151
v 0.64576 0.047423 0.035002
v 0.629839 0.053827 0.116457
v 0.631589 0.158608 0.034259
v 0.629839 0.053827 0.116457
v 0.64576 0.047423 0.035002
v 0.620304 0.158608 -0.109123
v 0.631589 0.158608 0.034259
v 0.623637 0.133393 -0.107444
v 0.632573 0.047423 0.106151
v 0.634577 0.036173 0.087529
v 0.64576 0.047423 0.035002
v 0.64576 0.047423 0.035002
v 0.639126 0.047423 -0.049291
v 0.631589 0.158608 0.034259
v 0.623637 0.133393 -0.107444
v 0.631589 0.158608 0.034259
v 0.629022 0.098532 -0.095243
v 0.634577 0.036173 0.087529
v 0.639325 0.026138 0.054939
v 0.64576 0.047423 0.035002
v 0.634456 0.06859 -0.074485
v 0.631589 0.158608 0.034259
v 0.639126 0.047423 -0.049291
v 0.639126 0.047423 -0.049291
v 0.64576 0.047423 0.035002
v 0.639063 0.04544 -0.04689
v 0.629022 0.098532 -0.095243
v 0.631589 0.158608 0.034259
v 0.634456 0.06859 -0.074485
v 0.642855 0.024635 0.03485
v 0.64576 0.047423 0.035002
v 0.639325 0.026138 0.054939
v 0.639063 0.04544 -0.04689
v 0.64576 0.047423 0.035002
v 0.63972 0.030293 -0.01411
v 0.64576 0.047423 0.035002
v 0.642855 0.024635 0.03485
v 0.63972 0.030293 -0.01411
v 0.641633 0.024039 0.020281
v 0.63972 0.030293 -0.01411
v 0.642855 0.024635 0.03485
vn -0.804142252611993 -0.5929411427983982 -0.042143074650993
vn -0.7941437358967004 -0.589637177229558 -0.14718602503223682
vn -0.805178436543096 -0.5896372388694017 0.06336885563495671
vn -0.8725789072542348 -0.4863278633988338 -0.04573029517650878
vn -0.860881634668928 -0.4831408828844844 -0.15955468772604414
vn -0.8728433648799082 -0.483141351679958 0.0686942114153925
vn -0.9138893727807816 -0.36893997192618116 -0.16937978460683645
vn -0.926588040420983 -0.3689400134341567 0.07292372615279072
vn -0.9666013742813573 -0.2512279496643264 -0.050658667025991116
vn -0.9522319155610333 -0.2492119411862125 -0.17648735749952457
vn -0.9754765065913998 -0.1255320250721538 -0.18079628251024119
vn -0.9654632981721206 -0.24921302861336173 0.07598346038426315
vn -0.9986294736366814 1.0000000013833496e-06 -0.0523371224192218
vn -0.9832546343885767 1.000000132900872e-06 -0.18223699940568158
vn -0.9890308783569852 -0.12553499703006862 0.07783884748036159
vn -0.9754765407017979 0.1255349875724021 -0.18079404148270542
vn -0.996917344412318 0.0 0.07845896003575194
vn -0.9890308783569852 0.12553499703006862 0.07783884748036159
vn -0.9905942941178166 0.1266009984507848 -0.0519146573954701
vn 0.7941437358967004 0.589637177229558 0.14718602503223682
vn 0.804142252611993 0.5929411427983982 0.042143074650993
vn 0.805178436543096 0.5896372388694017 -0.06336885563495671
vn 0.8725789072542348 0.4863278633988338 0.04573029517650878
vn 0.860881634668928 0.4831408828844844 0.15955468772604414
vn 0.8728433648799082 0.483141351679958 -0.0686942114153925
vn 0.9138893727807816 0.36893997192618116 0.16937978460683645
vn 0.926588040420983 0.3689400134341567 -0.07292372615279072
vn 0.9522319155610333 0.2492119411862125 0.17648735749952457
vn 0.9666013742813573 0.2512279496643264 0.050658667025991116
vn 0.9754765065913998 0.1255320250721538 0.18079628251024119
vn 0.9654632981721206 0.24921302861336173 -0.07598346038426315
vn 0.9832546343885767 -1.000000132900872e-06 0.18223699940568158
vn 0.9986294736366814 -1.0000000013833496e-06 0.0523371224192218
vn 0.9890308783569852 0.12553499703006862 -0.07783884748036159
vn 0.9754765407017979 -0.1255349875724021 0.18079404148270542
vn 0.996917344412318 0.0 -0.07845896003575194
vn 0.9890308783569852 -0.12553499703006862 -0.07783884748036159
vn 0.9905942941178166 -0.1266009984507848 0.0519146573954701
usemtl material_0_0
f 1//1 2//2 3//2
f 4//3 5//1 6//3
f 7//4 8//2 9//1
f 10//2 11//4 12//5
f 13//6 14//1 15//3
f 16//1 17//6 18//4
f 19//4 20//7 21//5
f 22//8 23//4 24//6
f 25//4 26//7 27//7
f 28//8 29//4 30//8
f 31//4 32//7 33//7
f 34//7 35//9 36//10
f 37//9 38//11 39//10
f 40//8 41//4 42//8
f 43//4 44//7 45//7
f 46//9 47//7 48//4
f 49//9 50//11 51//11
f 52//8 53//4 54//8
f 55//9 56//11 57//11
f 58//9 59//11 60//11
f 61//4 62//12 63//9
f 64//12 65//4 66//8
f 67//11 68//13 69//14
f 70//13 71//11 72//9
f 73//15 74//9 75//12
f 76//13 77//16 78//14
f 79//9 80//17 81//13
f 82//15 83//9 84//15
f 85//13 86//16 87//16
f 88//17 89//9 90//15
f 91//18 92//13 93//17
f 94//15 95//9 96//15
f 97//16 98//13 99//19
f 100//18 101//13 102//18
f 103//18 104//19 105//13
f 106//19 107//18 108//18
usemtl material_1_0
f 109//20 110//20 111//21
f 112//22 113//21 114//22
f 115//21 116//20 117//23
f 118//24 119//23 120//20
f 121//22 122//21 123//25
f 124//23 125//25 126//21
f 127//24 128//26 129//23
f 130//25 131//23 132//27
f 133//26 134//26 135//23
f 136//27 137//23 138//27
f 139//26 140//26 141//23
f 142//28 143//29 144//26
f 145//28 146//30 147//29
f 148//27 149//23 150//27
f 151//26 152//26 153//23
f 154//23 155//26 156//29
f 157//30 158//30 159//29
f 160//27 161//23 162//27
f 163//30 164//30 165//29
f 166//30 167//30 168//29
f 169//29 170//31 171//23
f 172//27 173//23 174//31
f 175//32 176//33 177//30
f 178//29 179//30 180//33
f 181//31 182//29 183//34
f 184//32 185//35 186//33
f 187//33 188//36 189//29
f 190//34 191//29 192//34
f 193//35 194//35 195//33
f 196//34 197//29 198//36
f 199//36 200//33 201//37
f 202//34 203//29 204//34
f 205//38 206//33 207//35
f 208//37 209//33 210//37
f 211//33 212//38 213//37
f 214//37 215//37 216//38
