mtllib swab_rod.mtl
g Part 1
usemtl 0.615686_0.811765_0.929412_0.000000_0.000000
o mesh0
v -0.0264929 0 0 
v -0.0264929 0.000322456 0.00146493 
v -0.0264929 0.000629834 0.00136136 
v -0.0264929 0.000907761 0.00119414 
v -0.0264929 0.00114324 0.000971079 
v -0.0264929 0.00132527 0.000702613 
v -0.0264929 0.00144532 0.000401293 
v -0.0264929 0.0014978 8.12084e-05 
v -0.0264929 0.00148024 -0.000242673 
v -0.0264929 0.00139347 -0.000555207 
v -0.0264929 0.00124153 -0.000841781 
v -0.0264929 0.00103155 -0.00108899 
v -0.0264929 0.000773331 -0.00128529 
v -0.0264929 0.000478952 -0.00142148 
v -0.0264929 0.000162179 -0.00149121 
v -0.0264929 -0.000162179 -0.00149121 
v -0.0264929 -0.000478952 -0.00142148 
v -0.0264929 -0.000773331 -0.00128529 
v -0.0264929 -0.00103155 -0.00108899 
v -0.0264929 -0.00124153 -0.000841781 
v -0.0264929 -0.00139347 -0.000555207 
v -0.0264929 -0.00148024 -0.000242673 
v -0.0264929 -0.0014978 8.12084e-05 
v -0.0264929 -0.00144532 0.000401293 
v -0.0264929 -0.00132527 0.000702613 
v -0.0264929 -0.00114324 0.000971079 
v -0.0264929 -0.000907761 0.00119414 
v -0.0264929 -0.000629834 0.00136136 
v -0.0264929 -0.000322456 0.00146493 
v -0.0264929 0 0.0015 
vn -1 0 0 
vn -1 0 0 
vn -1 0 0 
vn -1 0 0 
vn -1 0 0 
vn -1 0 0 
vn -1 0 0 
vn -1 0 0 
vn -1 0 0 
vn -1 0 0 
vn -1 0 0 
vn -1 0 0 
vn -1 0 0 
vn -1 0 0 
vn -1 0 0 
vn -1 0 0 
vn -1 0 0 
vn -1 0 0 
vn -1 0 0 
vn -1 0 0 
vn -1 0 0 
vn -1 0 0 
vn -1 0 0 
vn -1 0 0 
vn -1 0 0 
vn -1 0 0 
vn -1 0 0 
vn -1 0 0 
vn -1 0 0 
vn -1 0 0 
f 1//1 2//2 3//3 
f 3//3 4//4 1//1 
f 4//4 5//5 1//1 
f 5//5 6//6 1//1 
f 6//6 7//7 1//1 
f 7//7 8//8 1//1 
f 8//8 9//9 1//1 
f 9//9 10//10 1//1 
f 10//10 11//11 1//1 
f 11//11 12//12 1//1 
f 12//12 13//13 1//1 
f 13//13 14//14 1//1 
f 14//14 15//15 1//1 
f 15//15 16//16 1//1 
f 16//16 17//17 1//1 
f 17//17 18//18 1//1 
f 18//18 19//19 1//1 
f 19//19 20//20 1//1 
f 20//20 21//21 1//1 
f 21//21 22//22 1//1 
f 22//22 23//23 1//1 
f 23//23 24//24 1//1 
f 24//24 25//25 1//1 
f 25//25 26//26 1//1 
f 26//26 27//27 1//1 
f 27//27 28//28 1//1 
f 28//28 29//29 1//1 
f 29//29 30//30 1//1 
f 30//30 2//2 1//1 
o mesh1
v -0.0264929 0 0.0015 
v 0.0235071 -3.67394e-19 0.0015 
v 0.0235071 0.000322456 0.00146493 
v -0.0264929 0.000322456 0.00146493 
v 0.0235071 0.000629834 0.00136136 
v -0.0264929 0.000629834 0.00136136 
v 0.0235071 0.000907761 0.00119414 
v -0.0264929 0.000907761 0.00119414 
v 0.0235071 0.00114324 0.000971079 
v -0.0264929 0.00114324 0.000971079 
v 0.0235071 0.00132527 0.000702613 
v -0.0264929 0.00132527 0.000702613 
v 0.0235071 0.00144532 0.000401293 
v -0.0264929 0.00144532 0.000401293 
v 0.0235071 0.0014978 8.12084e-05 
v -0.0264929 0.0014978 8.12084e-05 
v 0.0235071 0.00148024 -0.000242673 
v -0.0264929 0.00148024 -0.000242673 
v 0.0235071 0.00139347 -0.000555207 
v -0.0264929 0.00139347 -0.000555207 
v 0.0235071 0.00124153 -0.000841781 
v -0.0264929 0.00124153 -0.000841781 
v 0.0235071 0.00103155 -0.00108899 
v -0.0264929 0.00103155 -0.00108899 
v 0.0235071 0.000773331 -0.00128529 
v -0.0264929 0.000773331 -0.00128529 
v 0.0235071 0.000478952 -0.00142148 
v -0.0264929 0.000478952 -0.00142148 
v 0.0235071 0.000162179 -0.00149121 
v -0.0264929 0.000162179 -0.00149121 
v 0.0235071 -0.000162179 -0.00149121 
v -0.0264929 -0.000162179 -0.00149121 
v 0.0235071 -0.000478952 -0.00142148 
v -0.0264929 -0.000478952 -0.00142148 
v 0.0235071 -0.000773331 -0.00128529 
v -0.0264929 -0.000773331 -0.00128529 
v 0.0235071 -0.00103155 -0.00108899 
v -0.0264929 -0.00103155 -0.00108899 
v 0.0235071 -0.00124153 -0.000841781 
v -0.0264929 -0.00124153 -0.000841781 
v 0.0235071 -0.00139347 -0.000555207 
v -0.0264929 -0.00139347 -0.000555207 
v 0.0235071 -0.00148024 -0.000242673 
v -0.0264929 -0.00148024 -0.000242673 
v 0.0235071 -0.0014978 8.12084e-05 
v -0.0264929 -0.0014978 8.12084e-05 
v 0.0235071 -0.00144532 0.000401293 
v -0.0264929 -0.00144532 0.000401293 
v 0.0235071 -0.00132527 0.000702613 
v -0.0264929 -0.00132527 0.000702613 
v 0.0235071 -0.00114324 0.000971079 
v -0.0264929 -0.00114324 0.000971079 
v 0.0235071 -0.000907761 0.00119414 
v -0.0264929 -0.000907761 0.00119414 
v 0.0235071 -0.000629834 0.00136136 
v -0.0264929 -0.000629834 0.00136136 
v 0.0235071 -0.000322456 0.00146493 
v -0.0264929 -0.000322456 0.00146493 
vn 0 0 1 
vn 0 0 1 
vn 0 0.21497 0.976621 
vn 0 0.21497 0.976621 
vn 0 0.419889 0.907575 
vn 0 0.419889 0.907575 
vn 0 0.605174 0.796093 
vn 0 0.605174 0.796093 
vn 0 0.762162 0.647386 
vn 0 0.762162 0.647386 
vn 0 0.883512 0.468408 
vn 0 0.883512 0.468408 
vn 0 0.96355 0.267528 
vn 0 0.96355 0.267528 
vn 0 0.998533 0.0541389 
vn 0 0.998533 0.0541389 
vn 0 0.986827 -0.161782 
vn 0 0.986827 -0.161782 
vn 0 0.928977 -0.370138 
vn 0 0.928977 -0.370138 
vn 0 0.827689 -0.561187 
vn 0 0.827689 -0.561187 
vn 0 0.687699 -0.725995 
vn 0 0.687699 -0.725995 
vn 0 0.515554 -0.856857 
vn 0 0.515554 -0.856857 
vn 0 0.319302 -0.947653 
vn 0 0.319302 -0.947653 
vn 0 0.108119 -0.994138 
vn 0 0.108119 -0.994138 
vn -0 -0.108119 -0.994138 
vn -0 -0.108119 -0.994138 
vn -0 -0.319302 -0.947653 
vn -0 -0.319302 -0.947653 
vn -0 -0.515554 -0.856857 
vn -0 -0.515554 -0.856857 
vn -0 -0.687699 -0.725995 
vn -0 -0.687699 -0.725995 
vn -0 -0.827689 -0.561187 
vn -0 -0.827689 -0.561187 
vn -0 -0.928977 -0.370138 
vn -0 -0.928977 -0.370138 
vn -0 -0.986827 -0.161782 
vn -0 -0.986827 -0.161782 
vn 0 -0.998533 0.0541389 
vn 0 -0.998533 0.0541389 
vn 0 -0.96355 0.267528 
vn 0 -0.96355 0.267528 
vn 0 -0.883512 0.468408 
vn 0 -0.883512 0.468408 
vn 0 -0.762162 0.647386 
vn 0 -0.762162 0.647386 
vn 0 -0.605174 0.796093 
vn 0 -0.605174 0.796093 
vn 0 -0.419889 0.907575 
vn 0 -0.419889 0.907575 
vn 0 -0.21497 0.976621 
vn 0 -0.21497 0.976621 
f 31//31 32//32 33//33 
f 34//34 33//33 35//35 
f 36//36 35//35 37//37 
f 38//38 37//37 39//39 
f 40//40 39//39 41//41 
f 42//42 41//41 43//43 
f 44//44 43//43 45//45 
f 46//46 45//45 47//47 
f 48//48 47//47 49//49 
f 50//50 49//49 51//51 
f 52//52 51//51 53//53 
f 54//54 53//53 55//55 
f 56//56 55//55 57//57 
f 58//58 57//57 59//59 
f 60//60 59//59 61//61 
f 62//62 61//61 63//63 
f 64//64 63//63 65//65 
f 66//66 65//65 67//67 
f 68//68 67//67 69//69 
f 70//70 69//69 71//71 
f 72//72 71//71 73//73 
f 74//74 73//73 75//75 
f 76//76 75//75 77//77 
f 78//78 77//77 79//79 
f 80//80 79//79 81//81 
f 82//82 81//81 83//83 
f 84//84 83//83 85//85 
f 86//86 85//85 87//87 
f 88//88 87//87 32//32 
f 32//32 31//31 88//88 
f 87//87 88//88 86//86 
f 85//85 86//86 84//84 
f 83//83 84//84 82//82 
f 81//81 82//82 80//80 
f 79//79 80//80 78//78 
f 77//77 78//78 76//76 
f 75//75 76//76 74//74 
f 73//73 74//74 72//72 
f 71//71 72//72 70//70 
f 69//69 70//70 68//68 
f 67//67 68//68 66//66 
f 65//65 66//66 64//64 
f 63//63 64//64 62//62 
f 61//61 62//62 60//60 
f 59//59 60//60 58//58 
f 57//57 58//58 56//56 
f 55//55 56//56 54//54 
f 53//53 54//54 52//52 
f 51//51 52//52 50//50 
f 49//49 50//50 48//48 
f 47//47 48//48 46//46 
f 45//45 46//46 44//44 
f 43//43 44//44 42//42 
f 41//41 42//42 40//40 
f 39//39 40//40 38//38 
f 37//37 38//38 36//36 
f 35//35 36//36 34//34 
f 33//33 34//34 31//31 
o mesh2
v 0.0235071 0 0 
v 0.0235071 -0.000322456 0.00146493 
v 0.0235071 -0.000629834 0.00136136 
v 0.0235071 -0.000907761 0.00119414 
v 0.0235071 -0.00114324 0.000971079 
v 0.0235071 -0.00132527 0.000702613 
v 0.0235071 -0.00144532 0.000401293 
v 0.0235071 -0.0014978 8.12084e-05 
v 0.0235071 -0.00148024 -0.000242673 
v 0.0235071 -0.00139347 -0.000555207 
v 0.0235071 -0.00124153 -0.000841781 
v 0.0235071 -0.00103155 -0.00108899 
v 0.0235071 -0.000773331 -0.00128529 
v 0.0235071 -0.000478952 -0.00142148 
v 0.0235071 -0.000162179 -0.00149121 
v 0.0235071 0.000162179 -0.00149121 
v 0.0235071 0.000478952 -0.00142148 
v 0.0235071 0.000773331 -0.00128529 
v 0.0235071 0.00103155 -0.00108899 
v 0.0235071 0.00124153 -0.000841781 
v 0.0235071 0.00139347 -0.000555207 
v 0.0235071 0.00148024 -0.000242673 
v 0.0235071 0.0014978 8.12084e-05 
v 0.0235071 0.00144532 0.000401293 
v 0.0235071 0.00132527 0.000702613 
v 0.0235071 0.00114324 0.000971079 
v 0.0235071 0.000907761 0.00119414 
v 0.0235071 0.000629834 0.00136136 
v 0.0235071 0.000322456 0.00146493 
v 0.0235071 -3.67394e-19 0.0015 
vn 1 -0 -0 
vn 1 -0 -0 
vn 1 -0 -0 
vn 1 -0 -0 
vn 1 -0 -0 
vn 1 -0 -0 
vn 1 -0 -0 
vn 1 -0 -0 
vn 1 -0 -0 
vn 1 -0 -0 
vn 1 -0 -0 
vn 1 -0 -0 
vn 1 -0 -0 
vn 1 -0 -0 
vn 1 -0 -0 
vn 1 -0 -0 
vn 1 -0 -0 
vn 1 -0 -0 
vn 1 -0 -0 
vn 1 -0 -0 
vn 1 -0 -0 
vn 1 -0 -0 
vn 1 -0 -0 
vn 1 -0 -0 
vn 1 -0 -0 
vn 1 -0 -0 
vn 1 -0 -0 
vn 1 -0 -0 
vn 1 -0 -0 
vn 1 -0 -0 
f 89//89 90//90 91//91 
f 91//91 92//92 89//89 
f 92//92 93//93 89//89 
f 93//93 94//94 89//89 
f 94//94 95//95 89//89 
f 95//95 96//96 89//89 
f 96//96 97//97 89//89 
f 97//97 98//98 89//89 
f 98//98 99//99 89//89 
f 99//99 100//100 89//89 
f 100//100 101//101 89//89 
f 101//101 102//102 89//89 
f 102//102 103//103 89//89 
f 103//103 104//104 89//89 
f 104//104 105//105 89//89 
f 105//105 106//106 89//89 
f 106//106 107//107 89//89 
f 107//107 108//108 89//89 
f 108//108 109//109 89//89 
f 109//109 110//110 89//89 
f 110//110 111//111 89//89 
f 111//111 112//112 89//89 
f 112//112 113//113 89//89 
f 113//113 114//114 89//89 
f 114//114 115//115 89//89 
f 115//115 116//116 89//89 
f 116//116 117//117 89//89 
f 117//117 118//118 89//89 
f 118//118 90//90 89//89 
