v -10 -23.901751 13.51442
v 10 -23.903299 48.51442
v -10 -23.903299 48.51442
v 10 -23.901751 13.51442
v 10 -23.903299 48.51442
v -10 -23.901751 13.51442
v -10 -18.901751 13.51464
v -10 -18.903299 48.514641
v 10 -18.901751 13.51464
v -10 -18.903299 48.514641
v 10 -18.903299 48.514641
v 10 -18.901751 13.51464
v -10 -23.903299 48.51442
v -10 -18.903299 48.514641
v -10 -18.901751 13.51464
v -10 -23.903299 48.51442
v -10 -18.901751 13.51464
v -10 -23.901751 13.51442
v -10 -18.903299 48.514641
v -10 -23.903299 48.51442
v 10 -23.903299 48.51442
v -10 -18.903299 48.514641
v 10 -23.903299 48.51442
v 10 -18.903299 48.514641
v 10 -18.903299 48.514641
v 10 -23.903299 48.51442
v 10 -18.901751 13.51464
v 10 -23.903299 48.51442
v 10 -23.901751 13.51442
v 10 -18.901751 13.51464
v -10 -23.901751 13.51442
v -10 -18.901751 13.51464
v 10 -23.901751 13.51442
v -10 -18.901751 13.51464
v 10 -18.901751 13.51464
v 10 -23.901751 13.51442
vn 4.3853101e-14 -1 -4.4513359e-05
vn 4.3853101e-14 -1 -4.4513359e-05
vn 4.3853101e-14 -1 -4.4513359e-05
vn 4.3853101e-14 -1 -4.4513359e-05
vn 4.3853101e-14 -1 -4.4513359e-05
vn 4.3853101e-14 -1 -4.4513359e-05
vn -4.3853101e-14 1 4.4513359e-05
vn -4.3853101e-14 1 4.4513359e-05
vn -4.3853101e-14 1 4.4513359e-05
vn -4.3853101e-14 1 4.4513359e-05
vn -4.3853101e-14 1 4.4513359e-05
vn -4.3853101e-14 1 4.4513359e-05
vn -1 -4.385301e-14 -2.0111891e-15
vn -1 -4.385301e-14 -2.0111891e-15
vn -1 -4.385301e-14 -2.0111891e-15
vn -1 -4.385301e-14 -2.0111891e-15
vn -1 -4.385301e-14 -2.0111891e-15
vn -1 -4.385301e-14 -2.0111891e-15
vn -2.0092369e-15 -4.4513359e-05 1
vn -2.0092369e-15 -4.4513359e-05 1
vn -2.0092369e-15 -4.4513359e-05 1
vn -2.0092369e-15 -4.4513359e-05 1
vn -2.0092369e-15 -4.4513359e-05 1
vn -2.0092369e-15 -4.4513359e-05 1
vn 1 4.385301e-14 2.0111891e-15
vn 1 4.385301e-14 2.0111891e-15
vn 1 4.385301e-14 2.0111891e-15
vn 1 4.385301e-14 2.0111891e-15
vn 1 4.385301e-14 2.0111891e-15
vn 1 4.385301e-14 2.0111891e-15
vn 2.0092369e-15 4.4513359e-05 -1
vn 2.0092369e-15 4.4513359e-05 -1
vn 2.0092369e-15 4.4513359e-05 -1
vn 2.0092369e-15 4.4513359e-05 -1
vn 2.0092369e-15 4.4513359e-05 -1
vn 2.0092369e-15 4.4513359e-05 -1
s 1
f 1//1 2//2 3//3
f 4//4 5//5 6//6
f 7//7 8//8 9//9
f 10//10 11//11 12//12
f 13//13 14//14 15//15
f 16//16 17//17 18//18
f 19//19 20//20 21//21
f 22//22 23//23 24//24
f 25//25 26//26 27//27
f 28//28 29//29 30//30
f 31//31 32//32 33//33
f 34//34 35//35 36//36
