# SSTK version 0.8.0
# 5
mtllib original-5.mtl
o #ID26
v 0.090113 0.456685 -0.063636
v 0.110351 0.432971 -0.039903
v 0.090113 0.432971 -0.063636
v 0.110351 0.456685 -0.039903
v 0.110351 0.456685 -0.039903
v 0.090113 0.456685 -0.063636
v 0.110351 0.432971 -0.039903
v 0.090113 0.432971 -0.063636
v -0.032896 0.432971 0.128081
v 0.033024 0.432971 0.128081
v 0.000064 0.432971 0.131985
v -0.063610 0.432971 0.116633
v 0.063738 0.432971 0.116633
v -0.089984 0.432971 0.098422
v 0.090113 0.432971 0.098422
v -0.110222 0.432971 0.074689
v 0.110351 0.432971 0.074689
v -0.122944 0.432971 0.047052
v 0.123073 0.432971 0.047052
v -0.127283 0.432971 0.017393
v 0.127412 0.432971 0.017393
v -0.122944 0.432971 -0.012266
v 0.123073 0.432971 -0.012266
v -0.110222 0.432971 -0.039903
v 0.110351 0.432971 -0.039903
v -0.089984 0.432971 -0.063636
v 0.090113 0.432971 -0.063636
v -0.063610 0.432971 -0.081847
v 0.063738 0.432971 -0.081847
v -0.032896 0.432971 -0.093295
v 0.033024 0.432971 -0.093295
v 0.000064 0.432971 -0.097200
v 0.000064 0.432971 -0.097200
v -0.032896 0.432971 -0.093295
v 0.033024 0.432971 -0.093295
v 0.063738 0.432971 -0.081847
v -0.063610 0.432971 -0.081847
v 0.090113 0.432971 -0.063636
v -0.089984 0.432971 -0.063636
v 0.110351 0.432971 -0.039903
v -0.110222 0.432971 -0.039903
v 0.123073 0.432971 -0.012266
v -0.122944 0.432971 -0.012266
v 0.127412 0.432971 0.017393
v -0.127283 0.432971 0.017393
v 0.123073 0.432971 0.047052
v -0.122944 0.432971 0.047052
v 0.110351 0.432971 0.074689
v -0.110222 0.432971 0.074689
v 0.090113 0.432971 0.098422
v -0.089984 0.432971 0.098422
v 0.063738 0.432971 0.116633
v -0.063610 0.432971 0.116633
v 0.033024 0.432971 0.128081
v -0.032896 0.432971 0.128081
v 0.000064 0.432971 0.131985
v 0.063738 0.432971 -0.081847
v 0.090113 0.456685 -0.063636
v 0.090113 0.432971 -0.063636
v 0.063738 0.456685 -0.081847
v 0.063738 0.456685 -0.081847
v 0.063738 0.432971 -0.081847
v 0.090113 0.456685 -0.063636
v 0.090113 0.432971 -0.063636
v 0.033024 0.456685 0.128081
v -0.032896 0.456685 0.128081
v 0.000064 0.456685 0.131985
v 0.063738 0.456685 0.116633
v -0.063610 0.456685 0.116633
v 0.090113 0.456685 0.098422
v -0.089984 0.456685 0.098422
v 0.110351 0.456685 0.074689
v -0.110222 0.456685 0.074689
v 0.123073 0.456685 0.047052
v -0.003002 0.456685 0.060121
v 0.009344 0.456685 0.058729
v 0.020848 0.456685 0.054650
v 0.030727 0.456685 0.048161
v 0.038308 0.456685 0.039704
v 0.127412 0.456685 0.017393
v 0.043073 0.456685 0.029856
v 0.044698 0.456685 0.019287
v 0.043073 0.456685 0.008719
v 0.123073 0.456685 -0.012266
v 0.038308 0.456685 -0.001130
v 0.030727 0.456685 -0.009586
v 0.020848 0.456685 -0.016076
v 0.110351 0.456685 -0.039903
v 0.009344 0.456685 -0.020155
v -0.003002 0.456685 -0.021546
v -0.122944 0.456685 0.047052
v -0.015348 0.456685 0.058729
v -0.026852 0.456685 0.054650
v -0.036731 0.456685 0.048161
v -0.044312 0.456685 0.039704
v -0.127283 0.456685 0.017393
v -0.049077 0.456685 0.029856
v -0.050702 0.456685 0.019287
v -0.049077 0.456685 0.008719
v -0.122944 0.456685 -0.012266
v -0.044312 0.456685 -0.001130
v -0.036731 0.456685 -0.009586
v -0.026852 0.456685 -0.016076
v -0.110222 0.456685 -0.039903
v -0.015348 0.456685 -0.020155
v 0.090113 0.456685 -0.063636
v -0.089984 0.456685 -0.063636
v 0.063738 0.456685 -0.081847
v -0.063610 0.456685 -0.081847
v 0.033024 0.456685 -0.093295
v -0.032896 0.456685 -0.093295
v 0.000064 0.456685 -0.097200
v 0.000064 0.456685 -0.097200
v 0.033024 0.456685 -0.093295
v -0.032896 0.456685 -0.093295
v -0.063610 0.456685 -0.081847
v 0.063738 0.456685 -0.081847
v -0.089984 0.456685 -0.063636
v 0.090113 0.456685 -0.063636
v -0.110222 0.456685 -0.039903
v 0.110351 0.456685 -0.039903
v -0.003002 0.456685 -0.021546
v -0.015348 0.456685 -0.020155
v -0.026852 0.456685 -0.016076
v -0.122944 0.456685 -0.012266
v -0.036731 0.456685 -0.009586
v -0.044312 0.456685 -0.001130
v -0.049077 0.456685 0.008719
v -0.127283 0.456685 0.017393
v -0.050702 0.456685 0.019287
v -0.049077 0.456685 0.029856
v -0.044312 0.456685 0.039704
v -0.122944 0.456685 0.047052
v -0.036731 0.456685 0.048161
v -0.026852 0.456685 0.054650
v -0.015348 0.456685 0.058729
v -0.003002 0.456685 0.060121
v -0.110222 0.456685 0.074689
v 0.009344 0.456685 -0.020155
v 0.020848 0.456685 -0.016076
v 0.123073 0.456685 -0.012266
v 0.030727 0.456685 -0.009586
v 0.038308 0.456685 -0.001130
v 0.043073 0.456685 0.008719
v 0.127412 0.456685 0.017393
v 0.044698 0.456685 0.019287
v 0.043073 0.456685 0.029856
v 0.038308 0.456685 0.039704
v 0.123073 0.456685 0.047052
v 0.030727 0.456685 0.048161
v 0.020848 0.456685 0.054650
v 0.009344 0.456685 0.058729
v 0.110351 0.456685 0.074689
v -0.089984 0.456685 0.098422
v 0.090113 0.456685 0.098422
v -0.063610 0.456685 0.116633
v 0.063738 0.456685 0.116633
v -0.032896 0.456685 0.128081
v 0.033024 0.456685 0.128081
v 0.000064 0.456685 0.131985
v 0.110351 0.456685 -0.039903
v 0.123073 0.432971 -0.012266
v 0.110351 0.432971 -0.039903
v 0.123073 0.456685 -0.012266
v 0.123073 0.456685 -0.012266
v 0.110351 0.456685 -0.039903
v 0.123073 0.432971 -0.012266
v 0.110351 0.432971 -0.039903
v 0.123073 0.456685 -0.012266
v 0.127412 0.432971 0.017393
v 0.123073 0.432971 -0.012266
v 0.127412 0.456685 0.017393
v 0.127412 0.456685 0.017393
v 0.123073 0.456685 -0.012266
v 0.127412 0.432971 0.017393
v 0.123073 0.432971 -0.012266
v 0.127412 0.456685 0.017393
v 0.123073 0.432971 0.047052
v 0.127412 0.432971 0.017393
v 0.123073 0.456685 0.047052
v 0.123073 0.456685 0.047052
v 0.127412 0.456685 0.017393
v 0.123073 0.432971 0.047052
v 0.127412 0.432971 0.017393
v 0.123073 0.456685 0.047052
v 0.110351 0.432971 0.074689
v 0.123073 0.432971 0.047052
v 0.110351 0.456685 0.074689
v 0.110351 0.456685 0.074689
v 0.123073 0.456685 0.047052
v 0.110351 0.432971 0.074689
v 0.123073 0.432971 0.047052
v 0.110351 0.456685 0.074689
v 0.090113 0.432971 0.098422
v 0.110351 0.432971 0.074689
v 0.090113 0.456685 0.098422
v 0.090113 0.456685 0.098422
v 0.110351 0.456685 0.074689
v 0.090113 0.432971 0.098422
v 0.110351 0.432971 0.074689
v 0.063738 0.456685 0.116633
v 0.090113 0.432971 0.098422
v 0.090113 0.456685 0.098422
v 0.063738 0.432971 0.116633
v 0.063738 0.432971 0.116633
v 0.063738 0.456685 0.116633
v 0.090113 0.432971 0.098422
v 0.090113 0.456685 0.098422
v 0.033024 0.456685 0.128081
v 0.063738 0.432971 0.116633
v 0.063738 0.456685 0.116633
v 0.033024 0.432971 0.128081
v 0.033024 0.432971 0.128081
v 0.033024 0.456685 0.128081
v 0.063738 0.432971 0.116633
v 0.063738 0.456685 0.116633
v 0.000064 0.456685 0.131985
v 0.033024 0.432971 0.128081
v 0.033024 0.456685 0.128081
v 0.000064 0.432971 0.131985
v 0.000064 0.432971 0.131985
v 0.000064 0.456685 0.131985
v 0.033024 0.432971 0.128081
v 0.033024 0.456685 0.128081
v -0.032896 0.456685 0.128081
v 0.000064 0.432971 0.131985
v 0.000064 0.456685 0.131985
v -0.032896 0.432971 0.128081
v -0.032896 0.432971 0.128081
v -0.032896 0.456685 0.128081
v 0.000064 0.432971 0.131985
v 0.000064 0.456685 0.131985
v -0.063610 0.456685 0.116633
v -0.032896 0.432971 0.128081
v -0.032896 0.456685 0.128081
v -0.063610 0.432971 0.116633
v -0.063610 0.432971 0.116633
v -0.063610 0.456685 0.116633
v -0.032896 0.432971 0.128081
v -0.032896 0.456685 0.128081
v -0.089984 0.456685 0.098422
v -0.063610 0.432971 0.116633
v -0.063610 0.456685 0.116633
v -0.089984 0.432971 0.098422
v -0.089984 0.432971 0.098422
v -0.089984 0.456685 0.098422
v -0.063610 0.432971 0.116633
v -0.063610 0.456685 0.116633
v -0.089984 0.456685 0.098422
v -0.110222 0.432971 0.074689
v -0.089984 0.432971 0.098422
v -0.110222 0.456685 0.074689
v -0.110222 0.456685 0.074689
v -0.089984 0.456685 0.098422
v -0.110222 0.432971 0.074689
v -0.089984 0.432971 0.098422
v -0.110222 0.456685 0.074689
v -0.122944 0.432971 0.047052
v -0.110222 0.432971 0.074689
v -0.122944 0.456685 0.047052
v -0.122944 0.456685 0.047052
v -0.110222 0.456685 0.074689
v -0.122944 0.432971 0.047052
v -0.110222 0.432971 0.074689
v -0.122944 0.456685 0.047052
v -0.127283 0.432971 0.017393
v -0.122944 0.432971 0.047052
v -0.127283 0.456685 0.017393
v -0.127283 0.456685 0.017393
v -0.122944 0.456685 0.047052
v -0.127283 0.432971 0.017393
v -0.122944 0.432971 0.047052
v -0.127283 0.456685 0.017393
v -0.122944 0.432971 -0.012266
v -0.127283 0.432971 0.017393
v -0.122944 0.456685 -0.012266
v -0.122944 0.456685 -0.012266
v -0.127283 0.456685 0.017393
v -0.122944 0.432971 -0.012266
v -0.127283 0.432971 0.017393
v -0.122944 0.456685 -0.012266
v -0.110222 0.432971 -0.039903
v -0.122944 0.432971 -0.012266
v -0.110222 0.456685 -0.039903
v -0.110222 0.456685 -0.039903
v -0.122944 0.456685 -0.012266
v -0.110222 0.432971 -0.039903
v -0.122944 0.432971 -0.012266
v -0.110222 0.456685 -0.039903
v -0.089984 0.432971 -0.063636
v -0.110222 0.432971 -0.039903
v -0.089984 0.456685 -0.063636
v -0.089984 0.456685 -0.063636
v -0.110222 0.456685 -0.039903
v -0.089984 0.432971 -0.063636
v -0.110222 0.432971 -0.039903
v -0.089984 0.432971 -0.063636
v -0.063610 0.456685 -0.081847
v -0.063610 0.432971 -0.081847
v -0.089984 0.456685 -0.063636
v -0.089984 0.456685 -0.063636
v -0.089984 0.432971 -0.063636
v -0.063610 0.456685 -0.081847
v -0.063610 0.432971 -0.081847
v -0.063610 0.432971 -0.081847
v -0.032896 0.456685 -0.093295
v -0.032896 0.432971 -0.093295
v -0.063610 0.456685 -0.081847
v -0.063610 0.456685 -0.081847
v -0.063610 0.432971 -0.081847
v -0.032896 0.456685 -0.093295
v -0.032896 0.432971 -0.093295
v -0.032896 0.432971 -0.093295
v 0.000064 0.456685 -0.097200
v 0.000064 0.432971 -0.097200
v -0.032896 0.456685 -0.093295
v -0.032896 0.456685 -0.093295
v -0.032896 0.432971 -0.093295
v 0.000064 0.456685 -0.097200
v 0.000064 0.432971 -0.097200
v 0.000064 0.432971 -0.097200
v 0.033024 0.456685 -0.093295
v 0.033024 0.432971 -0.093295
v 0.000064 0.456685 -0.097200
v 0.000064 0.456685 -0.097200
v 0.000064 0.432971 -0.097200
v 0.033024 0.456685 -0.093295
v 0.033024 0.432971 -0.093295
v 0.033024 0.432971 -0.093295
v 0.063738 0.456685 -0.081847
v 0.063738 0.432971 -0.081847
v 0.033024 0.456685 -0.093295
v 0.033024 0.456685 -0.093295
v 0.033024 0.432971 -0.093295
v 0.063738 0.456685 -0.081847
v 0.063738 0.432971 -0.081847
vn 0.7609102577201549 0 -0.6488571335018578
vn -0.7609102577201549 0 0.6488571335018578
vn 0 -1 0
vn 0 1 0
vn 0.5681877021294248 0 -0.8228989823477022
vn -0.5681877021294248 0 0.8228989823477022
vn 0.90838019924544 0 -0.4181452063802895
vn -0.90838019924544 0 0.4181452063802895
vn 0.9894659885604126 0 -0.14476552587603758
vn -0.9894659885604126 0 0.14476552587603758
vn 0.9894659885604126 0 0.14476552587603758
vn -0.9894659885604126 0 -0.14476552587603758
vn 0.90838019924544 0 0.4181452063802895
vn -0.90838019924544 0 -0.4181452063802895
vn 0.7609102577201549 0 0.6488571335018578
vn -0.7609102577201549 0 -0.6488571335018578
vn 0.5681877021294248 0 0.8228989823477022
vn -0.5681877021294248 0 -0.8228989823477022
vn 0.34925424358109464 0 0.9370280002970014
vn -0.34925424358109464 0 -0.9370280002970014
vn 0.11764341922318539 0 0.9930559027131746
vn -0.11764341922318539 0 -0.9930559027131746
vn -0.11764341922318539 0 0.9930559027131746
vn 0.11764341922318539 0 -0.9930559027131746
vn -0.34925424358109464 0 0.9370280002970014
vn 0.34925424358109464 0 -0.9370280002970014
usemtl material_0_0
f 1//1 2//1 3//1
f 2//1 1//1 4//1
f 5//2 6//2 7//2
f 8//2 7//2 6//2
f 9//3 10//3 11//3
f 10//3 9//3 12//3
f 10//3 12//3 13//3
f 13//3 12//3 14//3
f 13//3 14//3 15//3
f 15//3 14//3 16//3
f 15//3 16//3 17//3
f 17//3 16//3 18//3
f 17//3 18//3 19//3
f 19//3 18//3 20//3
f 19//3 20//3 21//3
f 21//3 20//3 22//3
f 21//3 22//3 23//3
f 23//3 22//3 24//3
f 23//3 24//3 25//3
f 25//3 24//3 26//3
f 25//3 26//3 27//3
f 27//3 26//3 28//3
f 27//3 28//3 29//3
f 29//3 28//3 30//3
f 29//3 30//3 31//3
f 31//3 30//3 32//3
f 33//4 34//4 35//4
f 35//4 34//4 36//4
f 34//4 37//4 36//4
f 36//4 37//4 38//4
f 37//4 39//4 38//4
f 38//4 39//4 40//4
f 39//4 41//4 40//4
f 40//4 41//4 42//4
f 41//4 43//4 42//4
f 42//4 43//4 44//4
f 43//4 45//4 44//4
f 44//4 45//4 46//4
f 45//4 47//4 46//4
f 46//4 47//4 48//4
f 47//4 49//4 48//4
f 48//4 49//4 50//4
f 49//4 51//4 50//4
f 50//4 51//4 52//4
f 51//4 53//4 52//4
f 52//4 53//4 54//4
f 53//4 55//4 54//4
f 56//4 54//4 55//4
f 57//5 58//5 59//5
f 58//5 57//5 60//5
f 61//6 62//6 63//6
f 64//6 63//6 62//6
f 65//4 66//4 67//4
f 66//4 65//4 68//4
f 66//4 68//4 69//4
f 69//4 68//4 70//4
f 69//4 70//4 71//4
f 71//4 70//4 72//4
f 71//4 72//4 73//4
f 73//4 72//4 74//4
f 73//4 74//4 75//4
f 75//4 74//4 76//4
f 76//4 74//4 77//4
f 77//4 74//4 78//4
f 78//4 74//4 79//4
f 79//4 74//4 80//4
f 79//4 80//4 81//4
f 81//4 80//4 82//4
f 82//4 80//4 83//4
f 83//4 80//4 84//4
f 83//4 84//4 85//4
f 85//4 84//4 86//4
f 86//4 84//4 87//4
f 87//4 84//4 88//4
f 87//4 88//4 89//4
f 89//4 88//4 90//4
f 75//4 91//4 73//4
f 91//4 75//4 92//4
f 91//4 92//4 93//4
f 91//4 93//4 94//4
f 91//4 94//4 95//4
f 91//4 95//4 96//4
f 96//4 95//4 97//4
f 96//4 97//4 98//4
f 96//4 98//4 99//4
f 96//4 99//4 100//4
f 100//4 99//4 101//4
f 100//4 101//4 102//4
f 100//4 102//4 103//4
f 100//4 103//4 104//4
f 104//4 103//4 105//4
f 104//4 105//4 90//4
f 104//4 90//4 88//4
f 104//4 88//4 106//4
f 104//4 106//4 107//4
f 107//4 106//4 108//4
f 107//4 108//4 109//4
f 109//4 108//4 110//4
f 109//4 110//4 111//4
f 111//4 110//4 112//4
f 113//3 114//3 115//3
f 115//3 114//3 116//3
f 114//3 117//3 116//3
f 116//3 117//3 118//3
f 117//3 119//3 118//3
f 118//3 119//3 120//3
f 119//3 121//3 120//3
f 121//3 122//3 120//3
f 122//3 123//3 120//3
f 123//3 124//3 120//3
f 120//3 124//3 125//3
f 124//3 126//3 125//3
f 126//3 127//3 125//3
f 127//3 128//3 125//3
f 125//3 128//3 129//3
f 128//3 130//3 129//3
f 130//3 131//3 129//3
f 131//3 132//3 129//3
f 129//3 132//3 133//3
f 132//3 134//3 133//3
f 134//3 135//3 133//3
f 135//3 136//3 133//3
f 136//3 137//3 133//3
f 138//3 133//3 137//3
f 122//3 121//3 139//3
f 139//3 121//3 140//3
f 121//3 141//3 140//3
f 140//3 141//3 142//3
f 142//3 141//3 143//3
f 143//3 141//3 144//3
f 141//3 145//3 144//3
f 144//3 145//3 146//3
f 146//3 145//3 147//3
f 147//3 145//3 148//3
f 145//3 149//3 148//3
f 148//3 149//3 150//3
f 150//3 149//3 151//3
f 151//3 149//3 152//3
f 152//3 149//3 137//3
f 137//3 149//3 138//3
f 149//3 153//3 138//3
f 138//3 153//3 154//3
f 153//3 155//3 154//3
f 154//3 155//3 156//3
f 155//3 157//3 156//3
f 156//3 157//3 158//3
f 157//3 159//3 158//3
f 160//3 158//3 159//3
f 161//7 162//7 163//7
f 162//7 161//7 164//7
f 165//8 166//8 167//8
f 168//8 167//8 166//8
f 169//9 170//9 171//9
f 170//9 169//9 172//9
f 173//10 174//10 175//10
f 176//10 175//10 174//10
f 177//11 178//11 179//11
f 178//11 177//11 180//11
f 181//12 182//12 183//12
f 184//12 183//12 182//12
f 185//13 186//13 187//13
f 186//13 185//13 188//13
f 189//14 190//14 191//14
f 192//14 191//14 190//14
f 193//15 194//15 195//15
f 194//15 193//15 196//15
f 197//16 198//16 199//16
f 200//16 199//16 198//16
f 201//17 202//17 203//17
f 202//17 201//17 204//17
f 205//18 206//18 207//18
f 208//18 207//18 206//18
f 209//19 210//19 211//19
f 210//19 209//19 212//19
f 213//20 214//20 215//20
f 216//20 215//20 214//20
f 217//21 218//21 219//21
f 218//21 217//21 220//21
f 221//22 222//22 223//22
f 224//22 223//22 222//22
f 225//23 226//23 227//23
f 226//23 225//23 228//23
f 229//24 230//24 231//24
f 232//24 231//24 230//24
f 233//25 234//25 235//25
f 234//25 233//25 236//25
f 237//26 238//26 239//26
f 240//26 239//26 238//26
f 241//6 242//6 243//6
f 242//6 241//6 244//6
f 245//5 246//5 247//5
f 248//5 247//5 246//5
f 249//2 250//2 251//2
f 250//2 249//2 252//2
f 253//1 254//1 255//1
f 256//1 255//1 254//1
f 257//8 258//8 259//8
f 258//8 257//8 260//8
f 261//7 262//7 263//7
f 264//7 263//7 262//7
f 265//10 266//10 267//10
f 266//10 265//10 268//10
f 269//9 270//9 271//9
f 272//9 271//9 270//9
f 273//12 274//12 275//12
f 274//12 273//12 276//12
f 277//11 278//11 279//11
f 280//11 279//11 278//11
f 281//14 282//14 283//14
f 282//14 281//14 284//14
f 285//13 286//13 287//13
f 288//13 287//13 286//13
f 289//16 290//16 291//16
f 290//16 289//16 292//16
f 293//15 294//15 295//15
f 296//15 295//15 294//15
f 297//18 298//18 299//18
f 298//18 297//18 300//18
f 301//17 302//17 303//17
f 304//17 303//17 302//17
f 305//20 306//20 307//20
f 306//20 305//20 308//20
f 309//19 310//19 311//19
f 312//19 311//19 310//19
f 313//22 314//22 315//22
f 314//22 313//22 316//22
f 317//21 318//21 319//21
f 320//21 319//21 318//21
f 321//24 322//24 323//24
f 322//24 321//24 324//24
f 325//23 326//23 327//23
f 328//23 327//23 326//23
f 329//26 330//26 331//26
f 330//26 329//26 332//26
f 333//25 334//25 335//25
f 336//25 335//25 334//25
